<?xml version="1.0" standalone="no"?>
<!DOCTYPE svg PUBLIC "-//W3C//DTD SVG 20010904//EN"
 "http://www.w3.org/TR/2001/REC-SVG-20010904/DTD/svg10.dtd">
<svg version="1.0" xmlns="http://www.w3.org/2000/svg"
 width="200.000000pt" height="200.000000pt" viewBox="0 0 200.000000 200.000000"
 preserveAspectRatio="xMidYMid meet">
<metadata>
Created by potrace 1.16, written by Peter Selinger 2001-2019
</metadata>
<g transform="translate(0.000000,200.000000) scale(0.100000,-0.100000)"
fill="#000000" stroke="none">
<path d="M882 1784 c-167 -83 -204 -303 -72 -435 106 -106 284 -105 387 3 101
105 97 285 -8 385 -81 77 -209 96 -307 47z"/>
<path d="M512 1724 c-123 -61 -170 -210 -108 -338 60 -122 206 -171 334 -111
28 13 52 26 52 29 0 3 -18 29 -39 57 -22 29 -45 71 -51 95 -19 66 -9 162 22
222 l26 51 -30 10 c-58 20 -149 14 -206 -15z"/>
<path d="M1283 1740 c-13 -5 -23 -11 -23 -13 0 -3 12 -31 27 -63 50 -107 29
-246 -48 -320 -16 -15 -29 -31 -29 -35 0 -4 23 -19 52 -33 141 -71 310 3 355
153 36 125 -26 258 -143 307 -37 16 -157 18 -191 4z"/>
<path d="M947 1236 c-130 -48 -210 -164 -254 -367 -23 -107 -25 -457 -4 -562
26 -128 64 -143 188 -75 102 56 133 56 251 -1 111 -52 135 -51 162 12 10 23
21 65 25 92 l6 50 -93 0 c-82 0 -100 3 -150 28 -74 36 -139 101 -175 175 -25
50 -28 68 -28 152 0 83 3 102 28 151 48 98 149 177 257 200 27 6 50 15 50 19
0 19 -61 77 -107 102 -62 34 -109 41 -156 24z"/>
<path d="M576 1220 c-103 -31 -185 -145 -228 -318 -20 -77 -22 -112 -22 -307
0 -191 3 -227 20 -275 13 -37 28 -59 46 -69 25 -15 31 -13 105 25 43 23 92 44
108 48 l30 6 -3 203 c-5 283 23 436 105 571 41 67 40 68 -42 107 -43 20 -73
22 -119 9z"/>
<path d="M1305 1211 c-22 -10 -49 -25 -59 -33 -18 -15 -18 -16 -1 -46 15 -25
33 -35 84 -52 124 -38 214 -132 246 -255 18 -72 19 -105 1 -170 -24 -93 -81
-173 -154 -216 -48 -29 -62 -47 -62 -81 0 -22 5 -29 28 -33 15 -3 60 -21 100
-40 84 -41 114 -43 141 -14 34 37 45 119 45 339 0 230 -15 324 -74 440 -71
141 -195 209 -295 161z"/>
<path d="M1120 989 c-103 -46 -160 -137 -160 -255 0 -291 385 -380 523 -120
17 32 22 58 22 121 0 70 -4 87 -29 133 -34 61 -85 106 -146 127 -61 22 -156
19 -210 -6z m63 -44 c33 -23 37 -30 37 -69 0 -39 -4 -46 -39 -70 -36 -25 -42
-27 -79 -15 -33 10 -41 17 -51 49 -6 20 -11 44 -11 53 0 16 75 76 95 77 6 0
27 -11 48 -25z m175 11 c15 -8 38 -25 51 -39 22 -25 23 -27 9 -69 -13 -37 -20
-45 -56 -56 -40 -13 -43 -13 -81 15 -36 25 -41 33 -41 68 1 35 6 44 38 67 43
32 45 32 80 14z m-242 -197 c14 -5 28 -24 36 -51 15 -42 15 -44 -14 -80 -26
-33 -35 -38 -73 -38 -39 0 -44 3 -60 36 -9 19 -19 50 -22 68 -4 28 -1 35 34
58 37 26 48 27 99 7z m334 -6 c35 -25 39 -32 34 -58 -3 -16 -13 -46 -22 -65
-15 -32 -21 -35 -63 -38 -43 -3 -47 -1 -72 36 -27 38 -27 39 -12 84 13 36 22
47 48 56 45 14 43 15 87 -15z m-146 -137 c25 -33 25 -35 10 -80 -14 -39 -20
-46 -50 -52 -19 -3 -49 -3 -68 0 -29 6 -35 12 -46 51 -12 42 -11 47 11 80 22
31 29 35 70 35 41 0 50 -4 73 -34z"/>
</g>
</svg>
